# xmcd
#
# Track frame offsets:
#        183
#        11903
#        24625
#        50005
#        76943
#        102115
#        123293
#        158483
#        176343
#        187995
#        215105
#
# Disc length: 3193 seconds
#
# Revision: 7
# Processed by: cddbd v1.5.2PL0 Copyright (c) Steve Scherf et al.
# Submitted via: jack 3.1.1
#
DISCID=870c770b
DTITLE=Frank Zappa - Zappa: Shut Up 'N Play Yer Guitar CD1
DYEAR=1981
DGENRE=Progressive Rock
TTITLE0=Five-Five-Five
TTITLE1=Hog Heaven
TTITLE2=Shut Up 'N PLay Yer Guitar Some More
TTITLE3=While You Were Out
TTITLE4=Treacherous Cretins
TTITLE5=Heavy Duty Judy
TTITLE6=Soup 'N Old Clothes
TTITLE7=Variations On The Carlos Santana Secret Chord Progression
TTITLE8=Gee, I Like Your Pants
TTITLE9=Canarsie
TTITLE10=Ship Ahoy
EXTD=
EXTT0=
EXTT1=
EXTT2=
EXTT3=
EXTT4=
EXTT5=
EXTT6=
EXTT7=
EXTT8=
EXTT9=
EXTT10=
PLAYORDER=
